<svg id="Layer_1" xmlns="http://www.w3.org/2000/svg" viewBox="0 0 201.7 188.3"><style>.st0{fill:#565A5C;} .st1{fill:#7C109A;} .st2{fill:#E17000;} .st3{fill:#FFB612;} .st4{fill:#69BE28;} .st5{fill:#B71234;} .st6{fill:#00B9E4;} .st7{fill:#E9994A;} .st8{fill:#D2492A;} .st9{fill:#009581;} .st10{fill:#BED600;}</style><path class="st0" d="M67.8 169.8h-.6l-3.5-8.9h.8l3 7.8 3-7.8h.8l-3.5 8.9zM72.8 169.8v-8.9h.8v8.9h-.8zM79 169.9c-1.2 0-2.4-.3-3.5-.7l.2-.6c1.1.4 2.3.7 3.3.7 1.6 0 2.5-.7 2.5-1.6 0-.8-.4-1.2-2.6-2.1-2.4-.9-3.1-1.6-3.1-2.8 0-1.4 1.2-1.9 3.2-1.9.9 0 2.2.2 3.1.4l-.1.6c-.9-.2-2-.4-2.9-.4-1.7 0-2.4.3-2.4 1.3s.6 1.3 2.8 2.2c2.5 1 2.9 1.6 2.9 2.7-.1 1.2-1.4 2.2-3.4 2.2zM87.4 169.9c-2.2 0-3.5-1.6-3.5-3.2v-5.8h.8v5.8c0 1.6 1.1 2.5 2.7 2.5s2.7-1 2.7-2.5v-5.8h.8v5.8c0 1.7-1.3 3.2-3.5 3.2zM98.9 169.8l-1-2.5h-4.3l-1 2.5h-.8l3.7-8.9h.6l3.7 8.9h-.9zm-3.1-7.9l-1.9 4.8h3.8l-1.9-4.8zM101.2 169.8v-8.9h.8v8.2h4.7v.7h-5.5zM108.3 169.8v-8.9h.8v8.9h-.8zM110.8 169.8v-.7l6.1-7.5H111v-.7h6.9v.7l-6.1 7.5h6.1v.7h-7.1zM119.6 169.8v-8.9h5.9v.7h-5.1v3.2h4.8v.7h-4.8v3.5h5.1v.7h-5.9zM134.1 169.8l-2.8-3.8h-3.1v3.8h-.8v-8.9h4c1.7 0 2.7 1.2 2.7 2.5 0 1.1-.7 2.1-2 2.4l2.9 3.9h-.9zm-2.7-8.2h-3.2v3.7h3.2c1.2 0 1.9-.7 1.9-1.8 0-1.2-.9-1.9-1.9-1.9z"/><g><path class="st1" d="M114.7 61.9L109 79.7l15.1-4.9z"/><path class="st2" d="M99.6 50.9l15.1-5V18.6H84.4v27.3z"/><path class="st3" d="M84.4 61.9v-16l-26-8.4L49 66.3l26 8.5z"/><path class="st4" d="M90.2 79.7L75 74.8 59 96.9l24.5 17.8 16.1-22.1z"/><path class="st5" d="M114.7 61.9l9.4 12.9 25.9-8.5-9.3-28.8-26 8.4z"/><path class="st6" d="M109 79.7l-9.4 12.9 16 22.1 24.6-17.8-16.1-22.1z"/><path class="st7" d="M84.4 45.9v16l15.2-11z"/><path class="st8" d="M99.6 50.9l15.1 11v-16z"/><path class="st9" d="M90.2 79.7l9.4 12.9 9.4-12.9z"/><path class="st10" d="M75 74.8l15.2 4.9-5.8-17.8z"/><path class="st1" d="M114.7 61.9L109 79.7l15.1-4.9z"/><path class="st2" d="M99.6 50.9l15.1-5V18.6H84.4v27.3z"/><path class="st3" d="M84.4 61.9v-16l-26-8.4L49 66.3l26 8.5z"/><path class="st4" d="M90.2 79.7L75 74.8 59 96.9l24.5 17.8 16.1-22.1z"/><path class="st5" d="M114.7 61.9l9.4 12.9 25.9-8.5-9.3-28.8-26 8.4z"/><path class="st6" d="M109 79.7l-9.4 12.9 16 22.1 24.6-17.8-16.1-22.1z"/><path class="st7" d="M84.4 45.9v16l15.2-11z"/><path class="st8" d="M99.6 50.9l15.1 11v-16z"/><path class="st9" d="M90.2 79.7l9.4 12.9 9.4-12.9z"/><path class="st10" d="M75 74.8l15.2 4.9-5.8-17.8z"/></g><g><path class="st6" d="M123.3 112.6v1.7h-.3v-1.7h-.7v-.2h1.6v.2h-.6zM126 114.4v-1.5l-.6 1.2h-.2l-.6-1.2v1.5h-.3v-1.9h.3l.7 1.3.7-1.3h.3v1.9h-.3z"/></g><g><path class="st0" d="M59.8 124.8c-.6-.3-1.1-.7-1.1-1.3 0-.7.7-1 1.4-1 .5 0 1.1.1 1.7.4 0-.1.3-1.1.4-1.2-.6-.2-1.3-.3-2.1-.3-1.4 0-3 .6-3 2.4 0 1.1.8 1.6 1.6 2 .6.3 1.2.7 1.2 1.4 0 .9-.8 1.3-1.6 1.3-.7 0-1.4-.3-2-.5 0 .1-.4 1.1-.4 1.2.8.3 1.6.4 2.3.4 1 0 3.3-.3 3.3-2.6 0-1.2-.9-1.8-1.7-2.2zM110.9 121.5c0 .1-2.7 6.2-2.7 6.2h-.1v-6.2h-2c0 .1-2.5 6.2-2.5 6.2h-.1s-.2-6.1-.2-6.2h-1.4c0 .1.5 7.9.5 8h1.8c0-.1 2.7-6.4 2.7-6.4h.1s.1 6.3.1 6.4h1.8c0-.1 3.5-7.8 3.6-8h-1.6zM112.3 123.1l-1.3 6.4h1.4l1.3-6.4zM116 123.1h-1.3l-1.3 6.4h3.6l.3-1.1h-2.4zM120.3 123.1H119l-1.3 6.4h3.6l.3-1.1h-2.4zM123.2 123.1l-1.3 6.4h1.4l1.3-6.4zM127.5 123.1l-3.7 6.4h1.5l.8-1.5h2.5l.2 1.5h1.3l-1.1-6.4h-1.5zm.8 3.8h-1.7l1.3-2.6.4 2.6zM136.6 123.1l-2.3 4.4-.4-4.4h-2.1l-1.3 6.4h1.3l1-5 .5 5h1.2l2.6-5-1.1 4.9v.1h1.4l1.3-6.4zM142.9 123.2c-.4-.2-1-.3-1.6-.3-1.1 0-2.3.5-2.3 2 0 1 .6 1.3 1.2 1.7.5.3.8.5.8 1 0 .6-.5.9-1.1.9-.5 0-1-.2-1.4-.4h-.1l-.3 1.2c.6.2 1.2.4 1.7.4 1.6 0 2.5-.8 2.5-2.2 0-1-.7-1.5-1.3-1.8-.4-.3-.8-.5-.8-.9 0-.5.6-.7.9-.7.4 0 .8.1 1.2.3h.1l.5-1.2zM97.5 127h2.7l.3-1.3h-2.8zM66.9 123.1l-.6 2.5h-2.4l.5-2.5H63l-1.4 6.4H63l.6-2.8h2.5l-.6 2.8h1.4l1.4-6.4zM70.5 124.2H73l.2-1.1h-3.9l-1.4 6.4h4l.2-1.1h-2.5l.3-1.7h2.3l.2-1.1h-2.3zM75.8 123.1h-1.7l-1.4 6.4h1.4l.6-2.6h.4c.5 0 .6.3.7.8 0 .1 0 .2.1.3l.3 1.5h1.5l-.6-2.6c-.1-.3-.2-.5-.4-.5 1-.1 1.6-.8 1.6-1.7.1-1.6-1.3-1.6-2.5-1.6zm1.1 1.7c0 .9-1 1-1.5 1H75l.3-1.6h.5c.6 0 1.1 0 1.1.6zM86.7 123.1l-2.2 4.6v-4.6h-1.8l-2.1 4.6-.2-4.6H79l.4 6.4h1.7l2.2-4.9.1 4.9h1.7l3.1-6.4zM88.8 123.1l-1.4 6.4h1.5l1.3-6.4zM94.4 127.7l-1.4-4.6h-1.7l-1.4 6.4h1.4l.9-4.7 1.3 4.7h1.8l1.4-6.4h-1.3zM144.1 128.5c0-.2-.1-.3-.4-.3h-.4v1h.2v-.4h.1l.2.4h.2l-.3-.4c.3-.1.4-.2.4-.3zm-.4.1h-.2v-.2h.2c.1 0 .2 0 .2.1s-.1.1-.2.1z"/><path class="st0" d="M143.7 127.8c-.5 0-.9.4-.9.9s.4.9.9.9.9-.4.9-.9-.4-.9-.9-.9zm0 1.6c-.4 0-.6-.3-.6-.7 0-.4.3-.7.6-.7.4 0 .6.3.6.7 0 .4-.2.7-.6.7z"/></g><g><path class="st0" d="M28.7 154.3c-5.7 0-9.7-4-9.7-9.1s3.8-9.1 9.7-9.1c1.4 0 3.1.2 4.2.6l-.3 1.3c-1.3-.3-2.8-.5-4-.5-4.7 0-8.1 3.1-8.1 7.7s3.4 7.7 8.1 7.7c1.2 0 2.5-.1 4-.5l.3 1.3c-1.2.4-2.7.6-4.2.6zM44 154.3c-5 0-8.3-4.1-8.3-9.1s3.4-9.1 8.3-9.1 8.3 4.2 8.3 9.1c0 5-3.4 9.1-8.3 9.1zm0-16.8c-4 0-6.7 3.3-6.7 7.7s2.8 7.7 6.7 7.7c4 0 6.7-3.3 6.7-7.7s-2.8-7.7-6.7-7.7zM56.4 154.1v-17.7H58v16.3h9.3v1.4H56.4zM77.2 154.3c-5 0-8.3-4.1-8.3-9.1s3.4-9.1 8.3-9.1c5 0 8.3 4.2 8.3 9.1 0 5-3.3 9.1-8.3 9.1zm0-16.8c-4 0-6.7 3.3-6.7 7.7s2.8 7.7 6.7 7.7c4 0 6.7-3.3 6.7-7.7s-2.7-7.7-6.7-7.7zM103.1 154.1l-5.7-7.7h-6.2v7.7h-1.6v-17.7h8c3.4 0 5.4 2.4 5.4 5 0 2.2-1.4 4.3-3.9 4.8l5.8 7.8h-1.8zm-5.5-16.3h-6.4v7.3h6.4c2.4 0 3.8-1.5 3.8-3.7s-1.7-3.6-3.8-3.6zM138 154.1l-8.5-11.7v11.7h-3.9v-17.7h3.9l8.5 11.7v-11.7h3.9v17.7H138zM157.7 154.1l-1.4-3.6h-6.5l-1.4 3.6h-3.9l6.7-17.7h3.7l6.7 17.7h-3.9zm-4.6-13.7l-2.3 7.1h4.6l-2.3-7.1zM173.6 148h-5.3v6h-4v-17.7h9.3c3.5 0 6 2.6 6 5.8-.1 3.2-2.5 5.9-6 5.9zm-.7-8.4h-4.6v5.3h4.7c1.4 0 2.5-1.2 2.5-2.7-.1-1.5-1.2-2.6-2.6-2.6zM107 152.8l.8-3.5s9.3 2.8 9.7-.1c.6-3.8-11-1.8-9.7-8.7 1.2-6.9 13.9-3.5 13.9-3.5l-.6 3.7s-8.3-2.2-8.8.6c-.7 3.7 11 1.3 9.7 8.7-1.3 7.6-15 2.8-15 2.8zM182 140.3c-1 0-1.8-.8-1.8-1.8s.7-1.8 1.8-1.8c1 0 1.8.8 1.8 1.8 0 .9-.7 1.8-1.8 1.8zm0-3.4c-.9 0-1.4.7-1.4 1.5s.5 1.5 1.4 1.5c.9 0 1.4-.7 1.4-1.5 0-.7-.5-1.5-1.4-1.5zm.5 2.4l-.4-.6h-.3v.6h-.5v-1.8h1c.3 0 .6.3.6.6 0 .2-.1.4-.3.5l.5.7h-.6zm-.3-1.4h-.5v.5h.5c.1 0 .2-.1.2-.2s-.1-.3-.2-.3z"/></g></svg>